<?xml version="1.0" encoding="utf-8"?>
<!-- Generator: Adobe Illustrator 24.2.3, SVG Export Plug-In . SVG Version: 6.00 Build 0)  -->
<!DOCTYPE svg PUBLIC "-//W3C//DTD SVG 1.1//EN" "http://www.w3.org/Graphics/SVG/1.1/DTD/svg11.dtd" [
	<!ENTITY ns_extend "http://ns.adobe.com/Extensibility/1.0/">
	<!ENTITY ns_ai "http://ns.adobe.com/AdobeIllustrator/10.0/">
	<!ENTITY ns_graphs "http://ns.adobe.com/Graphs/1.0/">
	<!ENTITY ns_vars "http://ns.adobe.com/Variables/1.0/">
	<!ENTITY ns_imrep "http://ns.adobe.com/ImageReplacement/1.0/">
	<!ENTITY ns_sfw "http://ns.adobe.com/SaveForWeb/1.0/">
	<!ENTITY ns_custom "http://ns.adobe.com/GenericCustomNamespace/1.0/">
	<!ENTITY ns_adobe_xpath "http://ns.adobe.com/XPath/1.0/">
]>
<svg version="1.1" id="Calque_1" xmlns:x="&ns_extend;" xmlns:i="&ns_ai;" xmlns:graph="&ns_graphs;"
	 xmlns="http://www.w3.org/2000/svg" xmlns:xlink="http://www.w3.org/1999/xlink" x="0px" y="0px" viewBox="0 0 408.4 208.5"
	 style="enable-background:new 0 0 408.4 208.5;" xml:space="preserve">
<style type="text/css">
	.st0{fill:url(#SVGID_1_);}
	.st1{fill:url(#SVGID_2_);}
</style>
<metadata>
	<sfw  xmlns="&ns_sfw;">
		<slices></slices>
		<sliceSourceBounds  bottomLeftOrigin="true" height="208.7" width="408.2" x="0" y="-0.2"></sliceSourceBounds>
	</sfw>
</metadata>
<g id="Calque_2_1_">
	<g id="Calque_1-2">
		
			<linearGradient id="SVGID_1_" gradientUnits="userSpaceOnUse" x1="206.015" y1="477.1106" x2="230.695" y2="452.4306" gradientTransform="matrix(1 0 0 1 0 -385.2756)">
			<stop  offset="0" style="stop-color:#EA6216"/>
			<stop  offset="1" style="stop-color:#F7C100"/>
		</linearGradient>
		<path class="st0" d="M193.5,80.2L193.5,80.2c13.3,13.3,34.9,13.3,48.3,0l0,0L243,79l-24.2-24.1L193.5,80.2z"/>
		
			<linearGradient id="SVGID_2_" gradientUnits="userSpaceOnUse" x1="177.03" y1="449.9956" x2="231" y2="396.0256" gradientTransform="matrix(1 0 0 1 0 -385.2756)">
			<stop  offset="0" style="stop-color:#EA6216"/>
			<stop  offset="0.83" style="stop-color:#F7C100"/>
		</linearGradient>
		<path class="st1" d="M217.6,0l-52.2,52.2l24.1,24.1l28.1-28C230.9,35,231,13.4,217.6,0L217.6,0z"/>
		<path d="M32.1,128.8H19.6V173h-7.1v-44.2H0v-7h32.1V128.8z"/>
		<path d="M95.8,121.8V173h-6.9v-13.4H68.4V173h-7v-51.2h7v30.8h20.4v-30.8H95.8z"/>
		<path d="M132.1,128.8v15.8h17.4v7h-17.4V166h22.6v7h-29.6v-51.2h29.6v7H132.1z"/>
		<path d="M214,173h-29.7v-51.2h7V166H214V173z"/>
		<path d="M250.4,173h-7v-51.2h7V173z"/>
		<path d="M287.2,165.5c-10-10-9.9-26.2,0.1-36.1c10-10,26.2-9.9,36.1,0.1s9.9,26.2-0.1,36.1c-4.8,4.8-11.3,7.4-18,7.4
			C298.5,173.1,292,170.4,287.2,165.5z M292,134c-7.3,7.4-7.3,19.3,0,26.6c7.4,7.3,19.3,7.3,26.6,0c7.3-7.4,7.3-19.3,0-26.6
			c-3.5-3.5-8.3-5.5-13.3-5.5C300.3,128.4,295.5,130.4,292,134z"/>
		<path d="M384.3,173l-17.2-26.6V173h-6.9v-51.2l24,36.8l24-36.8V173h-6.9v-26.6L384.3,173z"/>
		<path d="M47.9,199c0,1.4-0.2,2.8-0.6,4.1c-0.4,1.1-1,2.1-1.8,2.9c-0.8,0.8-1.8,1.4-2.8,1.7c-1.3,0.4-2.6,0.6-4,0.6H35
			c-0.2,0-0.4-0.1-0.6-0.2c-0.2-0.2-0.3-0.5-0.3-0.8v-16.1c0-0.3,0.1-0.6,0.3-0.8c0.2-0.1,0.4-0.2,0.6-0.2h4.1c1.3,0,2.7,0.2,4,0.6
			c1,0.4,2,1,2.7,1.7c0.7,0.8,1.3,1.7,1.7,2.8C47.8,196.5,48,197.8,47.9,199z M45.4,199.1c0-0.9-0.1-1.8-0.4-2.7
			c-0.2-0.8-0.6-1.5-1.1-2.2c-0.5-0.6-1.2-1.1-2-1.4c-1-0.4-2-0.5-3-0.5h-2.4v14H39c1,0,2-0.1,2.9-0.4c0.8-0.3,1.5-0.7,2-1.3
			s0.9-1.4,1.1-2.2C45.3,201.2,45.4,200.2,45.4,199.1L45.4,199.1z"/>
		<path d="M61.2,207.9c0,0.1,0,0.1-0.1,0.2c0,0.1-0.1,0.1-0.2,0.1c-0.1,0-0.2,0.1-0.4,0.1s-0.4,0-0.6,0c-0.2,0-0.4,0-0.6,0
			c-0.1,0-0.2,0-0.4-0.1c-0.1,0-0.1-0.1-0.2-0.1c0-0.1-0.1-0.1,0-0.2v-17.3c0-0.1,0-0.1,0.1-0.2c0.1-0.1,0.1-0.1,0.2-0.1
			c0.1,0,0.2-0.1,0.4-0.1s0.4,0,0.5,0c0.2,0,0.4,0,0.6,0c0.1,0,0.2,0,0.4,0.1c0.1,0,0.1,0.1,0.2,0.1c0,0.1,0.1,0.1,0.1,0.2V207.9z"
			/>
		<path d="M86.6,192.7c0,0.2,0,0.3,0,0.5c0,0.1,0,0.2-0.1,0.3c0,0.1-0.1,0.1-0.1,0.2c-0.1,0-0.1,0.1-0.2,0.1c-0.2,0-0.4-0.1-0.6-0.3
			c-0.8-0.5-1.7-0.9-2.6-1.2c-0.7-0.2-1.4-0.3-2.2-0.3c-0.9,0-1.8,0.2-2.7,0.5c-0.8,0.3-1.5,0.9-2,1.5c-0.6,0.7-1,1.5-1.3,2.3
			c-0.3,0.9-0.5,1.9-0.4,2.9c0,1,0.1,2.1,0.5,3.1c0.3,0.8,0.7,1.6,1.3,2.3c0.6,0.6,1.2,1.1,2,1.4c0.8,0.3,1.7,0.5,2.6,0.5
			c0.6,0,1.1-0.1,1.7-0.2c0.6-0.1,1.1-0.3,1.6-0.6v-5.3H80c-0.2,0-0.3-0.1-0.3-0.2c-0.1-0.2-0.1-0.5-0.1-0.7c0-0.1,0-0.3,0-0.4
			c0-0.1,0-0.2,0.1-0.3c0-0.1,0.1-0.1,0.2-0.2c0.1,0,0.1-0.1,0.2-0.1h5.7c0.1,0,0.2,0,0.3,0.1c0.1,0,0.2,0.1,0.3,0.2
			c0.1,0.1,0.2,0.2,0.2,0.3s0.1,0.3,0.1,0.4v6.9c0,0.2,0,0.4-0.1,0.6c-0.1,0.2-0.3,0.4-0.5,0.5c-0.3,0.1-0.6,0.3-1,0.4
			c-0.4,0.2-0.9,0.3-1.3,0.4c-0.5,0.1-0.9,0.2-1.4,0.3s-0.9,0.1-1.4,0.1c-1.3,0-2.5-0.2-3.7-0.6c-1.1-0.4-2-1-2.8-1.9
			c-0.8-0.8-1.4-1.8-1.7-2.9c-0.8-2.5-0.8-5.1,0-7.6c0.4-1.1,1-2.1,1.8-3c0.8-0.8,1.8-1.5,2.8-1.9c1.2-0.5,2.4-0.7,3.7-0.7
			c0.6,0,1.3,0.1,1.9,0.2c0.5,0.1,1.1,0.3,1.6,0.4c0.4,0.1,0.8,0.3,1.2,0.5c0.2,0.1,0.5,0.3,0.7,0.5c0.1,0.1,0.2,0.3,0.3,0.4
			C86.6,192.2,86.6,192.5,86.6,192.7z"/>
		<path d="M100.6,207.9c0,0.1,0,0.1,0,0.2c-0.1,0.1-0.1,0.1-0.2,0.1s-0.2,0.1-0.4,0.1c-0.2,0-0.4,0-0.6,0s-0.4,0-0.6,0
			c-0.1,0-0.2,0-0.4-0.1c-0.1,0-0.1-0.1-0.2-0.1c0-0.1,0-0.1,0-0.2v-17.3c0-0.1,0-0.1,0.1-0.2c0.1-0.1,0.1-0.1,0.2-0.1
			s0.3-0.1,0.4-0.1c0.2,0,0.4,0,0.6,0s0.4,0,0.6,0c0.1,0,0.3,0,0.4,0.1c0.1,0,0.1,0.1,0.2,0.1c0,0.1,0,0.1,0,0.2L100.6,207.9z"/>
		<path d="M123.8,191.3c0,0.2,0,0.3,0,0.5c0,0.1,0,0.2-0.1,0.3c0,0.1-0.1,0.1-0.2,0.2c-0.1,0-0.1,0.1-0.2,0.1h-5.1V208
			c0,0.1,0,0.1-0.1,0.2c0,0.1-0.1,0.1-0.2,0.1s-0.2,0.1-0.4,0.1c-0.4,0.1-0.8,0.1-1.2,0c-0.1,0-0.3,0-0.4-0.1
			c-0.1,0-0.1-0.1-0.2-0.1c0-0.1-0.1-0.1-0.1-0.2v-15.6h-5.1c-0.1,0-0.1,0-0.2-0.1c-0.1,0-0.1-0.1-0.1-0.2c0-0.1-0.1-0.2-0.1-0.3
			c0-0.2,0-0.3,0-0.5s0-0.3,0-0.5c0-0.1,0-0.2,0.1-0.3c0-0.1,0.1-0.1,0.1-0.2c0.1,0,0.1-0.1,0.2-0.1H123c0.1,0,0.1,0,0.2,0.1
			c0.1,0,0.1,0.1,0.2,0.2c0,0.1,0.1,0.2,0.1,0.3C123.8,191,123.8,191.1,123.8,191.3z"/>
		<path d="M144.8,207.4c0.1,0.2,0.1,0.3,0.1,0.5c0,0.1,0,0.2-0.1,0.3s-0.2,0.1-0.4,0.1s-0.5,0-0.7,0H143c-0.1,0-0.3,0-0.4-0.1
			c-0.1,0-0.1-0.1-0.2-0.1c0-0.1-0.1-0.1-0.1-0.2l-1.5-4.4h-7.5l-1.5,4.3c0,0.1-0.1,0.2-0.1,0.2c-0.1,0.1-0.1,0.1-0.2,0.1
			c-0.1,0-0.2,0.1-0.4,0.1s-0.4,0-0.6,0c-0.2,0-0.4,0-0.7,0c-0.1,0-0.3,0-0.4-0.1c-0.1-0.1-0.1-0.2-0.1-0.3c0-0.2,0.1-0.3,0.1-0.5
			l6-16.7c0-0.1,0.1-0.2,0.1-0.3c0.1-0.1,0.2-0.1,0.3-0.1s0.3-0.1,0.4-0.1h0.7h0.7c0.2,0,0.3,0,0.5,0.1c0.1,0,0.2,0.1,0.3,0.2
			c0.1,0.1,0.1,0.2,0.2,0.3L144.8,207.4z M137,192.7L137,192.7l-3.1,9h6.3L137,192.7z"/>
		<path d="M164.2,207.2c0,0.2,0,0.3,0,0.5c0,0.1,0,0.2-0.1,0.3c0,0.1-0.1,0.1-0.2,0.2c-0.1,0-0.1,0.1-0.2,0.1h-8
			c-0.2,0-0.4-0.1-0.6-0.2c-0.2-0.2-0.3-0.5-0.3-0.8v-16.7c0-0.1,0-0.1,0.1-0.2c0-0.1,0.1-0.1,0.2-0.1c0.1,0,0.3-0.1,0.4-0.1
			c0.2,0,0.4,0,0.6,0c0.2,0,0.4,0,0.6,0c0.1,0,0.2,0,0.4,0.1c0.1,0,0.1,0.1,0.2,0.1c0,0.1,0.1,0.1,0.1,0.2v15.6h6.5
			c0.1,0,0.1,0,0.2,0.1c0.1,0.1,0.1,0.1,0.2,0.2c0,0.1,0.1,0.2,0.1,0.3C164.2,206.9,164.2,207.1,164.2,207.2z"/>
		<path d="M197.3,203.2c0,0.8-0.1,1.6-0.5,2.3c-0.3,0.6-0.7,1.2-1.3,1.7s-1.2,0.8-1.9,1c-0.8,0.2-1.6,0.4-2.4,0.4
			c-0.6,0-1.1,0-1.7-0.1c-0.5-0.1-0.9-0.2-1.4-0.4c-0.3-0.1-0.7-0.3-1-0.5c-0.2-0.1-0.4-0.2-0.6-0.4c-0.1-0.1-0.2-0.3-0.2-0.4
			c-0.1-0.2-0.1-0.5-0.1-0.7s0-0.3,0-0.5c0-0.1,0-0.2,0.1-0.3c0-0.1,0.1-0.1,0.1-0.2c0.1,0,0.1-0.1,0.2-0.1c0.2,0,0.4,0.1,0.6,0.2
			c0.3,0.2,0.6,0.4,0.9,0.5c0.4,0.2,0.9,0.4,1.3,0.5c0.6,0.2,1.2,0.2,1.8,0.2c0.5,0,1-0.1,1.4-0.2c0.4-0.1,0.8-0.3,1.1-0.6
			s0.6-0.6,0.7-0.9c0.2-0.4,0.3-0.8,0.3-1.3s-0.1-0.9-0.4-1.3c-0.2-0.4-0.6-0.7-0.9-1c-0.4-0.3-0.8-0.5-1.3-0.8l-1.5-0.7
			c-0.5-0.2-1-0.5-1.5-0.8s-0.9-0.6-1.3-1c-0.4-0.4-0.7-0.9-0.9-1.4c-0.5-1.3-0.5-2.7,0.1-3.9c0.3-0.6,0.6-1.1,1.1-1.5
			s1.1-0.7,1.7-0.9c0.7-0.2,1.4-0.3,2.2-0.3c0.4,0,0.8,0,1.2,0.1c0.7,0.1,1.4,0.3,2.1,0.7c0.2,0.1,0.4,0.2,0.6,0.4
			c0.1,0.1,0.1,0.1,0.2,0.2c0,0.1,0.1,0.1,0.1,0.2c0,0.1,0,0.2,0,0.3s0,0.3,0,0.4s0,0.3,0,0.4c0,0.1,0,0.2-0.1,0.3
			c0,0.1-0.1,0.2-0.1,0.2s-0.1,0.1-0.2,0.1c-0.2,0-0.3-0.1-0.5-0.2c-0.2-0.1-0.5-0.3-0.8-0.4c-0.4-0.2-0.7-0.3-1.1-0.4
			c-0.5-0.1-0.9-0.2-1.4-0.1c-0.4,0-0.9,0.1-1.3,0.2c-0.3,0.1-0.7,0.3-0.9,0.5s-0.4,0.5-0.6,0.8c-0.1,0.3-0.2,0.7-0.2,1
			c0,0.5,0.1,0.9,0.4,1.3c0.2,0.4,0.6,0.7,0.9,1c0.4,0.3,0.8,0.5,1.3,0.8l1.5,0.7c0.5,0.2,1,0.5,1.5,0.8s0.9,0.6,1.3,1
			C196.8,200.9,197.3,202.1,197.3,203.2L197.3,203.2z"/>
		<path d="M222.9,199.1c0,1.3-0.2,2.7-0.5,3.9c-0.3,1.1-0.8,2.1-1.5,3c-0.7,0.8-1.6,1.5-2.6,1.9c-2.3,0.9-4.8,0.9-7.1,0.1
			c-0.9-0.4-1.8-1-2.4-1.8c-0.7-0.8-1.2-1.8-1.4-2.9c-0.3-1.3-0.5-2.6-0.5-3.9c0-1.3,0.2-2.6,0.5-3.9c0.3-1.1,0.8-2.1,1.6-3
			c0.7-0.8,1.6-1.5,2.6-1.9c2.3-0.9,4.8-0.9,7.1-0.1c0.9,0.4,1.8,1,2.4,1.7c0.7,0.8,1.2,1.8,1.5,2.8
			C222.8,196.4,222.9,197.7,222.9,199.1z M220.4,199.2c0-1-0.1-1.9-0.3-2.9c-0.2-0.8-0.5-1.6-0.9-2.3c-0.4-0.6-1-1.2-1.7-1.5
			c-0.8-0.4-1.7-0.6-2.6-0.6c-0.9,0-1.8,0.2-2.6,0.6c-0.7,0.4-1.3,0.9-1.7,1.6c-0.5,0.7-0.8,1.5-0.9,2.3c-0.2,0.9-0.3,1.8-0.3,2.7
			c0,1,0.1,2,0.3,2.9c0.1,0.8,0.4,1.6,0.9,2.3c0.4,0.6,1,1.2,1.7,1.5c0.8,0.4,1.7,0.6,2.6,0.5c0.9,0,1.8-0.2,2.6-0.6
			c0.7-0.4,1.3-0.9,1.7-1.6c0.5-0.7,0.8-1.5,0.9-2.3C220.3,201.1,220.4,200.2,220.4,199.2z"/>
		<path d="M243.2,207.2c0,0.2,0,0.3,0,0.5c0,0.1,0,0.2-0.1,0.3c0,0.1-0.1,0.1-0.1,0.2c-0.1,0-0.1,0.1-0.2,0.1h-8
			c-0.2,0-0.4-0.1-0.6-0.2c-0.2-0.2-0.3-0.5-0.3-0.8v-16.7c0-0.1,0-0.1,0.1-0.2c0-0.1,0.1-0.1,0.2-0.1c0.1,0,0.2-0.1,0.4-0.1
			s0.4,0,0.6,0c0.2,0,0.4,0,0.6,0c0.1,0,0.3,0,0.4,0.1c0.1,0,0.1,0.1,0.2,0.1c0,0.1,0,0.1,0.1,0.2v15.6h6.5c0.1,0,0.2,0,0.2,0.1
			c0.1,0.1,0.1,0.1,0.1,0.2c0,0.1,0.1,0.2,0.1,0.3C243.1,206.9,243.2,207.1,243.2,207.2z"/>
		<path d="M265.9,201.6c0,1-0.1,2-0.5,2.9c-0.3,0.8-0.8,1.6-1.4,2.2c-0.6,0.6-1.4,1.1-2.2,1.4c-0.9,0.3-1.9,0.5-2.9,0.5
			c-0.9,0-1.8-0.1-2.7-0.4c-0.8-0.3-1.5-0.7-2.1-1.3s-1.1-1.3-1.4-2.1c-0.3-0.9-0.5-1.9-0.5-2.9v-11.2c0-0.1,0-0.1,0.1-0.2
			c0-0.1,0.1-0.1,0.2-0.1c0.1,0,0.2-0.1,0.4-0.1c0.4,0,0.8,0,1.2,0c0.1,0,0.3,0,0.4,0.1c0.1,0,0.1,0.1,0.2,0.1
			c0,0.1,0.1,0.1,0.1,0.2v10.9c0,0.7,0.1,1.5,0.3,2.2c0.2,0.6,0.5,1.1,0.9,1.6c0.4,0.4,0.9,0.7,1.4,0.9c0.6,0.2,1.2,0.3,1.8,0.3
			c0.6,0,1.3-0.1,1.9-0.3c0.5-0.2,1-0.5,1.4-0.9s0.7-1,0.9-1.5c0.2-0.7,0.3-1.4,0.3-2.1v-11c0-0.1,0-0.1,0.1-0.2
			c0-0.1,0.1-0.1,0.2-0.1s0.2-0.1,0.4-0.1c0.2,0,0.4,0,0.6,0s0.4,0,0.6,0c0.1,0,0.2,0,0.4,0.1c0.1,0,0.1,0.1,0.2,0.1
			c0,0.1,0.1,0.1,0.1,0.2L265.9,201.6z"/>
		<path d="M289,191.3c0,0.2,0,0.3,0,0.5c0,0.1,0,0.2-0.1,0.3c0,0.1-0.1,0.1-0.2,0.2c-0.1,0-0.1,0.1-0.2,0.1h-5.1V208
			c0,0.1,0,0.1,0,0.2c-0.1,0.1-0.1,0.1-0.2,0.1s-0.2,0.1-0.4,0.1c-0.2,0-0.4,0-0.6,0s-0.4,0-0.6,0c-0.1,0-0.3,0-0.4-0.1
			c-0.1,0-0.1-0.1-0.2-0.1c0-0.1-0.1-0.1-0.1-0.2v-15.6H276c-0.1,0-0.1,0-0.2-0.1c-0.1,0-0.1-0.1-0.1-0.2c0-0.1-0.1-0.2-0.1-0.3
			c0-0.2,0-0.3,0-0.5s0-0.3,0-0.5c0-0.1,0.1-0.2,0.1-0.3s0.1-0.1,0.1-0.2c0.1,0,0.1-0.1,0.2-0.1h12.5c0.1,0,0.1,0,0.2,0.1
			c0.1,0,0.1,0.1,0.2,0.2c0,0.1,0.1,0.2,0.1,0.3C289,191,289,191.1,289,191.3z"/>
		<path d="M301.1,207.9c0,0.1,0,0.1-0.1,0.2c0,0.1-0.1,0.1-0.2,0.1s-0.2,0.1-0.4,0.1c-0.4,0.1-0.8,0.1-1.1,0c-0.1,0-0.2,0-0.4-0.1
			c-0.1,0-0.1-0.1-0.2-0.1c0-0.1-0.1-0.1,0-0.2v-17.3c0-0.1,0-0.1,0.1-0.2c0.1-0.1,0.1-0.1,0.2-0.1s0.2-0.1,0.4-0.1
			c0.2,0,0.4,0,0.5,0c0.2,0,0.4,0,0.6,0c0.1,0,0.2,0,0.4,0.1c0.1,0,0.1,0.1,0.2,0.1c0,0.1,0.1,0.1,0.1,0.2L301.1,207.9z"/>
		<path d="M328.2,199.1c0,1.3-0.2,2.7-0.5,3.9c-0.3,1.1-0.8,2.1-1.5,3c-0.7,0.8-1.6,1.5-2.6,1.9c-2.3,0.9-4.8,0.9-7.1,0.1
			c-0.9-0.4-1.8-1-2.5-1.8s-1.2-1.8-1.4-2.9c-0.3-1.3-0.5-2.6-0.5-3.9c0-1.3,0.2-2.6,0.5-3.9c0.3-1.1,0.8-2.1,1.5-3
			c0.7-0.8,1.6-1.5,2.6-1.9c2.3-0.9,4.8-0.9,7.1-0.1c0.9,0.4,1.8,1,2.5,1.7c0.7,0.8,1.2,1.8,1.5,2.8
			C328,196.4,328.2,197.7,328.2,199.1z M325.6,199.2c0-1-0.1-1.9-0.3-2.9c-0.2-0.8-0.5-1.6-0.9-2.3c-0.4-0.6-1-1.2-1.7-1.5
			c-0.8-0.4-1.7-0.6-2.6-0.6s-1.8,0.2-2.6,0.6c-0.7,0.4-1.3,0.9-1.7,1.6c-0.5,0.7-0.8,1.5-0.9,2.3c-0.2,0.9-0.3,1.8-0.3,2.7
			c0,1,0.1,2,0.3,2.9c0.1,0.8,0.4,1.6,0.9,2.3c0.4,0.6,1,1.2,1.7,1.5c0.8,0.4,1.7,0.6,2.6,0.5c0.9,0,1.8-0.2,2.6-0.6
			c0.7-0.4,1.3-0.9,1.7-1.6c0.5-0.7,0.8-1.5,0.9-2.3C325.5,201.1,325.6,200.2,325.6,199.2z"/>
		<path d="M352.7,207.3c0,0.2,0,0.3-0.1,0.5c-0.1,0.1-0.1,0.2-0.3,0.3c-0.1,0.1-0.2,0.1-0.3,0.2c-0.1,0-0.3,0.1-0.4,0.1h-0.8
			c-0.2,0-0.4,0-0.7-0.1c-0.2-0.1-0.4-0.2-0.5-0.3c-0.2-0.2-0.4-0.3-0.5-0.6c-0.2-0.3-0.4-0.6-0.5-0.9l-5.5-10.2
			c-0.3-0.5-0.6-1.1-0.9-1.7s-0.6-1.1-0.8-1.7l0,0c0,0.7,0,1.4,0,2.1s0,1.4,0,2.1V208c0,0.1,0,0.1-0.1,0.2c0,0.1-0.1,0.1-0.2,0.1
			s-0.2,0.1-0.4,0.1c-0.2,0-0.4,0-0.6,0s-0.4,0-0.6,0c-0.1,0-0.2,0-0.4-0.1c-0.1,0-0.1-0.1-0.2-0.1c0-0.1-0.1-0.1-0.1-0.2v-16.6
			c0-0.3,0.1-0.6,0.3-0.8c0.2-0.2,0.4-0.2,0.7-0.2h1.2c0.2,0,0.5,0,0.7,0.1c0.2,0,0.3,0.1,0.5,0.2c0.2,0.1,0.3,0.3,0.4,0.4
			c0.2,0.2,0.3,0.5,0.4,0.7l4.2,7.9c0.3,0.5,0.5,1,0.8,1.4l0.7,1.4c0.2,0.4,0.4,0.9,0.7,1.3l0.7,1.3l0,0c0-0.7,0-1.5,0-2.3v-12.1
			c0-0.1,0-0.1,0.1-0.2c0-0.1,0.1-0.1,0.2-0.1s0.2-0.1,0.4-0.1c0.2,0,0.4,0,0.6,0s0.4,0,0.6,0c0.1,0,0.2,0,0.4,0.1
			c0.1,0,0.1,0.1,0.2,0.1c0,0.1,0.1,0.1,0.1,0.2L352.7,207.3z"/>
		<path d="M374.3,203.2c0,0.8-0.1,1.6-0.5,2.3c-0.3,0.6-0.7,1.2-1.3,1.7c-0.6,0.5-1.2,0.8-2,1s-1.6,0.4-2.4,0.4
			c-0.6,0-1.1,0-1.7-0.1c-0.5-0.1-0.9-0.2-1.4-0.4c-0.3-0.1-0.7-0.3-1-0.5c-0.2-0.1-0.4-0.2-0.6-0.4c-0.1-0.1-0.2-0.3-0.2-0.4
			c-0.1-0.2-0.1-0.5-0.1-0.7s0-0.3,0-0.5c0-0.1,0-0.2,0.1-0.3c0-0.1,0.1-0.1,0.1-0.2c0.1,0,0.1-0.1,0.2-0.1c0.2,0,0.4,0.1,0.5,0.2
			c0.3,0.2,0.6,0.4,0.9,0.5c0.4,0.2,0.9,0.4,1.3,0.5c0.6,0.2,1.2,0.2,1.8,0.2c0.5,0,1-0.1,1.4-0.2c0.4-0.1,0.8-0.3,1.1-0.6
			c0.3-0.3,0.6-0.6,0.7-0.9c0.2-0.4,0.3-0.8,0.3-1.3s-0.1-0.9-0.4-1.3c-0.2-0.4-0.6-0.7-0.9-1c-0.4-0.3-0.8-0.5-1.3-0.8l-1.5-0.7
			c-0.5-0.2-1-0.5-1.5-0.8s-0.9-0.6-1.3-1s-0.7-0.9-0.9-1.4c-0.2-0.6-0.4-1.2-0.4-1.9s0.1-1.4,0.4-2s0.6-1.1,1.1-1.5
			s1.1-0.7,1.7-0.9c0.7-0.2,1.4-0.3,2.2-0.3c0.4,0,0.8,0,1.2,0.1c0.7,0.1,1.4,0.3,2.1,0.7c0.2,0.1,0.4,0.2,0.5,0.4
			c0.1,0.1,0.1,0.1,0.2,0.2c0,0.1,0.1,0.1,0.1,0.2c0,0.1,0,0.2,0,0.3s0,0.3,0,0.4s0,0.3,0,0.4c0,0.1,0,0.2-0.1,0.3
			c0,0.1-0.1,0.1-0.1,0.2c-0.1,0-0.1,0.1-0.2,0.1c-0.2,0-0.3-0.1-0.5-0.2c-0.2-0.1-0.5-0.3-0.8-0.4c-0.4-0.2-0.7-0.3-1.1-0.4
			c-0.5-0.1-0.9-0.2-1.4-0.1c-0.4,0-0.9,0.1-1.3,0.2c-0.3,0.1-0.7,0.3-0.9,0.5c-0.2,0.2-0.4,0.5-0.5,0.8s-0.2,0.7-0.2,1
			c0,0.5,0.1,0.9,0.4,1.3c0.2,0.4,0.6,0.7,0.9,1c0.4,0.3,0.8,0.5,1.3,0.8l1.5,0.7c0.5,0.2,1,0.5,1.5,0.8s0.9,0.6,1.3,1
			C373.8,200.9,374.3,202.1,374.3,203.2L374.3,203.2z"/>
	</g>
</g>
</svg>
