<svg xmlns="http://www.w3.org/2000/svg" xmlns:xlink="http://www.w3.org/1999/xlink" viewBox="0 0 408.36 208.54"><defs><style>.cls-1{fill:url(#Dégradé_sans_nom_7);}.cls-2{fill:url(#Dégradé_sans_nom_8);}.cls-3{fill:#fff;}</style><linearGradient id="Dégradé_sans_nom_7" x1="206.01" y1="91.83" x2="230.69" y2="67.15" gradientUnits="userSpaceOnUse"><stop offset="0" stop-color="#ea6216"/><stop offset="1" stop-color="#f7c100"/></linearGradient><linearGradient id="Dégradé_sans_nom_8" x1="177.02" y1="64.71" x2="230.99" y2="10.74" gradientUnits="userSpaceOnUse"><stop offset="0" stop-color="#ea6216"/><stop offset="0.83" stop-color="#f7c100"/></linearGradient></defs><g id="Calque_2" data-name="Calque 2"><g id="Calque_1-2" data-name="Calque 1"><path class="cls-1" d="M193.46,80.24h0a34.13,34.13,0,0,0,48.27,0L243,79,218.82,54.88Z"/><path class="cls-2" d="M217.6,0,165.41,52.19l24.13,24.13,28.06-28A34.15,34.15,0,0,0,217.6,0Z"/><path class="cls-3" d="M32.09,128.81H19.58V173H12.51V128.81H0v-7H32.09Z"/><path class="cls-3" d="M95.75,121.81V173H88.81V159.56H68.38V173h-7V121.81h7v30.75H88.81V121.81Z"/><path class="cls-3" d="M132.14,128.78v15.78h17.42v7H132.14V166h22.58v7H125.13V121.81h29.59v7Z"/><path class="cls-3" d="M214,173H184.29V121.81h7V166H214Z"/><path class="cls-3" d="M250.36,173h-7V121.81h7Z"/><path class="cls-3" d="M287.24,165.47A25.55,25.55,0,1,1,305.35,173,24.69,24.69,0,0,1,287.24,165.47ZM292,134a18.83,18.83,0,1,0,13.35-5.54A18.17,18.17,0,0,0,292,134Z"/><path class="cls-3" d="M384.34,173l-17.17-26.62V173h-6.88V121.81l24,36.81,24-36.81V173h-6.88V146.36Z"/><path class="cls-3" d="M47.94,199a12.57,12.57,0,0,1-.6,4.08,7.4,7.4,0,0,1-1.75,2.9,7.21,7.21,0,0,1-2.81,1.71,12.17,12.17,0,0,1-4,.58H35a1,1,0,0,1-.61-.22.89.89,0,0,1-.28-.76V191.24a.88.88,0,0,1,.28-.76,1,1,0,0,1,.61-.22h4.08a11.34,11.34,0,0,1,3.95.61,7.11,7.11,0,0,1,2.71,1.74,7.4,7.4,0,0,1,1.66,2.75A11.15,11.15,0,0,1,47.94,199Zm-2.52.09a9.88,9.88,0,0,0-.36-2.72,5.75,5.75,0,0,0-1.14-2.18,5.15,5.15,0,0,0-2-1.43,7.78,7.78,0,0,0-3-.52H36.48v14H39a8.51,8.51,0,0,0,2.91-.43,4.83,4.83,0,0,0,2-1.32A5.72,5.72,0,0,0,45,202.28,11,11,0,0,0,45.42,199.1Z"/><path class="cls-3" d="M61.15,207.91a.34.34,0,0,1-.06.2.35.35,0,0,1-.19.13,2.1,2.1,0,0,1-.37.08,3.09,3.09,0,0,1-.58,0,3.18,3.18,0,0,1-.57,0,1.92,1.92,0,0,1-.37-.08.39.39,0,0,1-.2-.13.33.33,0,0,1-.05-.2V190.62a.33.33,0,0,1,.06-.19.36.36,0,0,1,.21-.13,2,2,0,0,1,.37-.09,4.44,4.44,0,0,1,.55,0,4.51,4.51,0,0,1,.58,0,2,2,0,0,1,.37.09.31.31,0,0,1,.19.13.33.33,0,0,1,.06.19Z"/><path class="cls-3" d="M86.6,192.71a3.28,3.28,0,0,1,0,.47,2,2,0,0,1-.08.33.49.49,0,0,1-.14.19.32.32,0,0,1-.18.06,1.22,1.22,0,0,1-.56-.27A10,10,0,0,0,83,192.32a8.11,8.11,0,0,0-2.17-.26,6.37,6.37,0,0,0-2.67.54,5.64,5.64,0,0,0-2,1.5,6.78,6.78,0,0,0-1.26,2.29,8.86,8.86,0,0,0-.44,2.87,9,9,0,0,0,.48,3.06,6.43,6.43,0,0,0,1.33,2.25,5.34,5.34,0,0,0,2,1.39,6.82,6.82,0,0,0,2.59.48,7.64,7.64,0,0,0,1.69-.2,6.47,6.47,0,0,0,1.59-.61v-5.25H80a.39.39,0,0,1-.35-.23,1.74,1.74,0,0,1-.12-.74,2.81,2.81,0,0,1,0-.45,1,1,0,0,1,.09-.31.36.36,0,0,1,.15-.17.32.32,0,0,1,.2-.06h5.73a.8.8,0,0,1,.3.06.78.78,0,0,1,.28.16.87.87,0,0,1,.2.31,1.51,1.51,0,0,1,.06.44v6.87a1.46,1.46,0,0,1-.12.62,1,1,0,0,1-.53.47c-.27.13-.62.28-1,.44a11.39,11.39,0,0,1-1.33.4,10.64,10.64,0,0,1-1.37.25,10.89,10.89,0,0,1-1.38.09,10.13,10.13,0,0,1-3.73-.65A7.58,7.58,0,0,1,74.27,206a8,8,0,0,1-1.73-2.86,11.93,11.93,0,0,1,0-7.62,8.44,8.44,0,0,1,1.82-3,8.07,8.07,0,0,1,2.83-1.9,9.53,9.53,0,0,1,3.65-.68,9.81,9.81,0,0,1,1.93.18,12.36,12.36,0,0,1,1.61.43,6.38,6.38,0,0,1,1.19.53,3.66,3.66,0,0,1,.66.46,1,1,0,0,1,.25.42A2.89,2.89,0,0,1,86.6,192.71Z"/><path class="cls-3" d="M100.57,207.91a.42.42,0,0,1,0,.2.44.44,0,0,1-.2.13,1.92,1.92,0,0,1-.37.08,3,3,0,0,1-.57,0,3.22,3.22,0,0,1-.58,0,2.1,2.1,0,0,1-.37-.08.44.44,0,0,1-.2-.13.42.42,0,0,1,0-.2V190.62a.33.33,0,0,1,.06-.19.36.36,0,0,1,.21-.13,2.14,2.14,0,0,1,.38-.09,4.22,4.22,0,0,1,.55,0,4.45,4.45,0,0,1,.57,0,1.81,1.81,0,0,1,.37.09.37.37,0,0,1,.2.13.41.41,0,0,1,0,.19Z"/><path class="cls-3" d="M123.78,191.29a3,3,0,0,1,0,.46,1.12,1.12,0,0,1-.09.32.5.5,0,0,1-.15.17.37.37,0,0,1-.21.06h-5.06v15.61a.34.34,0,0,1-.06.2.4.4,0,0,1-.19.13,2.33,2.33,0,0,1-.37.08,4.15,4.15,0,0,1-1.15,0,2.25,2.25,0,0,1-.38-.08.4.4,0,0,1-.19-.13.34.34,0,0,1-.06-.2V192.3h-5.06a.37.37,0,0,1-.21-.06.47.47,0,0,1-.14-.17,1.12,1.12,0,0,1-.09-.32,2.07,2.07,0,0,1,0-.46,2.13,2.13,0,0,1,0-.46,1.1,1.1,0,0,1,.09-.33.44.44,0,0,1,.14-.18.37.37,0,0,1,.21-.06H123.3a.37.37,0,0,1,.21.06.45.45,0,0,1,.15.18,1.1,1.1,0,0,1,.09.33A3.13,3.13,0,0,1,123.78,191.29Z"/><path class="cls-3" d="M144.77,207.43a2.13,2.13,0,0,1,.12.49.35.35,0,0,1-.11.29.69.69,0,0,1-.37.12,6.13,6.13,0,0,1-.68,0l-.69,0a1.84,1.84,0,0,1-.39-.07.44.44,0,0,1-.2-.13,2,2,0,0,1-.12-.21l-1.54-4.39H133.3l-1.48,4.33a.51.51,0,0,1-.11.22.46.46,0,0,1-.2.15,1.32,1.32,0,0,1-.38.09,5.29,5.29,0,0,1-.63,0,4,4,0,0,1-.66,0,.61.61,0,0,1-.36-.13.36.36,0,0,1-.1-.28,1.76,1.76,0,0,1,.12-.5l6-16.73a.76.76,0,0,1,.15-.25.47.47,0,0,1,.26-.15,1.73,1.73,0,0,1,.45-.08l.69,0,.73,0a1.83,1.83,0,0,1,.48.08.51.51,0,0,1,.27.16.72.72,0,0,1,.16.25ZM137,192.66h0l-3.1,9h6.26Z"/><path class="cls-3" d="M164.24,207.23c0,.19,0,.34,0,.47a1.35,1.35,0,0,1-.09.32.52.52,0,0,1-.16.19.38.38,0,0,1-.21.07h-8a1,1,0,0,1-.6-.22.9.9,0,0,1-.29-.76V190.62a.33.33,0,0,1,.06-.19.34.34,0,0,1,.19-.13,2.14,2.14,0,0,1,.38-.09,4.67,4.67,0,0,1,.57,0,4.62,4.62,0,0,1,.58,0,2.23,2.23,0,0,1,.37.09.34.34,0,0,1,.19.13.33.33,0,0,1,.06.19V206.2h6.46a.37.37,0,0,1,.21.06.77.77,0,0,1,.16.19,1,1,0,0,1,.09.31C164.23,206.89,164.24,207.05,164.24,207.23Z"/><path class="cls-3" d="M197.26,203.22a5.25,5.25,0,0,1-.46,2.26,4.75,4.75,0,0,1-1.3,1.67,5.53,5.53,0,0,1-1.95,1,8.11,8.11,0,0,1-2.41.35,8.82,8.82,0,0,1-1.68-.15,10.48,10.48,0,0,1-1.38-.38,6.49,6.49,0,0,1-1-.46,2.51,2.51,0,0,1-.57-.4,1,1,0,0,1-.24-.43,2.51,2.51,0,0,1-.08-.69,3.43,3.43,0,0,1,0-.5,1.59,1.59,0,0,1,.08-.33.41.41,0,0,1,.14-.17.33.33,0,0,1,.2-.05,1.2,1.2,0,0,1,.55.23,8.36,8.36,0,0,0,.91.52,9.41,9.41,0,0,0,1.34.52,6.27,6.27,0,0,0,1.82.24,4.66,4.66,0,0,0,1.43-.21,3.11,3.11,0,0,0,1.11-.59,2.57,2.57,0,0,0,.72-.94,3.15,3.15,0,0,0,.25-1.26,2.39,2.39,0,0,0-.35-1.31,3.63,3.63,0,0,0-.92-1,8.38,8.38,0,0,0-1.3-.75l-1.5-.69c-.51-.24-1-.5-1.49-.79a6.44,6.44,0,0,1-1.29-1,4.73,4.73,0,0,1-.93-1.37,5.18,5.18,0,0,1,.06-3.89,4.1,4.1,0,0,1,1.14-1.49,5.15,5.15,0,0,1,1.74-.91,7.27,7.27,0,0,1,2.18-.31,6.94,6.94,0,0,1,1.2.1,7.63,7.63,0,0,1,2.1.67,2.27,2.27,0,0,1,.55.35,1.1,1.1,0,0,1,.17.21.69.69,0,0,1,.07.19,2,2,0,0,1,0,.29c0,.11,0,.25,0,.43s0,.32,0,.44a2.09,2.09,0,0,1-.07.33.31.31,0,0,1-.12.2.25.25,0,0,1-.17.06,1,1,0,0,1-.48-.2c-.22-.13-.48-.27-.8-.43a7,7,0,0,0-1.12-.45A5.05,5.05,0,0,0,192,192a3.9,3.9,0,0,0-1.3.2,2.67,2.67,0,0,0-.92.54,2.21,2.21,0,0,0-.55.79,2.65,2.65,0,0,0-.18,1,2.36,2.36,0,0,0,.35,1.3,3.52,3.52,0,0,0,.93,1,7.78,7.78,0,0,0,1.31.76l1.51.71c.51.24,1,.49,1.5.78a6.55,6.55,0,0,1,1.32,1,4.31,4.31,0,0,1,1.28,3.22Z"/><path class="cls-3" d="M222.9,199.06a14.09,14.09,0,0,1-.51,3.94,8.31,8.31,0,0,1-1.54,3,6.7,6.7,0,0,1-2.57,1.89,10.3,10.3,0,0,1-7.12.05,6.17,6.17,0,0,1-2.45-1.76,7.63,7.63,0,0,1-1.44-2.86,15.09,15.09,0,0,1-.47-3.94,13.73,13.73,0,0,1,.51-3.87,8.11,8.11,0,0,1,1.55-3,6.86,6.86,0,0,1,2.57-1.88,10.27,10.27,0,0,1,7.08-.06,6.3,6.3,0,0,1,2.45,1.74,7.43,7.43,0,0,1,1.46,2.84A14.25,14.25,0,0,1,222.9,199.06Zm-2.53.17a14.22,14.22,0,0,0-.27-2.85,6.48,6.48,0,0,0-.9-2.28,4.4,4.4,0,0,0-1.69-1.51,5.74,5.74,0,0,0-2.62-.55,5.33,5.33,0,0,0-2.61.59,5,5,0,0,0-1.72,1.56,6.52,6.52,0,0,0-.94,2.27,12.79,12.79,0,0,0-.29,2.74,14.72,14.72,0,0,0,.27,2.92,6.44,6.44,0,0,0,.89,2.31,4.25,4.25,0,0,0,1.67,1.5,5.74,5.74,0,0,0,2.64.54,5.48,5.48,0,0,0,2.64-.59,4.67,4.67,0,0,0,1.72-1.58,6.47,6.47,0,0,0,.93-2.3A13,13,0,0,0,220.37,199.23Z"/><path class="cls-3" d="M243.16,207.23a3.09,3.09,0,0,1,0,.47,1.35,1.35,0,0,1-.09.32.42.42,0,0,1-.15.19.41.41,0,0,1-.22.07h-8a1,1,0,0,1-.61-.22.89.89,0,0,1-.28-.76V190.62a.41.41,0,0,1,.05-.19.34.34,0,0,1,.2-.13,2,2,0,0,1,.37-.09,4.67,4.67,0,0,1,.57,0,4.51,4.51,0,0,1,.58,0,1.81,1.81,0,0,1,.37.09.37.37,0,0,1,.2.13.41.41,0,0,1,.05.19V206.2h6.46a.4.4,0,0,1,.22.06.58.58,0,0,1,.15.19,1,1,0,0,1,.09.31A3.18,3.18,0,0,1,243.16,207.23Z"/><path class="cls-3" d="M265.86,201.62a8.34,8.34,0,0,1-.48,2.93,6,6,0,0,1-1.37,2.18,5.87,5.87,0,0,1-2.17,1.35,8.46,8.46,0,0,1-2.91.46,8.13,8.13,0,0,1-2.72-.43,5.77,5.77,0,0,1-2.1-1.28,5.68,5.68,0,0,1-1.35-2.1,8.49,8.49,0,0,1-.47-2.93V190.62a.33.33,0,0,1,.06-.19.31.31,0,0,1,.19-.13,1.87,1.87,0,0,1,.36-.09,5.62,5.62,0,0,1,1.16,0,1.81,1.81,0,0,1,.37.09.31.31,0,0,1,.18.13.33.33,0,0,1,.06.19v10.89a6.89,6.89,0,0,0,.31,2.19,4,4,0,0,0,.88,1.55,3.78,3.78,0,0,0,1.39.93,5,5,0,0,0,1.83.31,5.34,5.34,0,0,0,1.86-.3,3.64,3.64,0,0,0,1.38-.92,4,4,0,0,0,.86-1.52,6.71,6.71,0,0,0,.3-2.11v-11a.33.33,0,0,1,.06-.19.31.31,0,0,1,.19-.13,2,2,0,0,1,.37-.09,4.62,4.62,0,0,1,.58,0,4.39,4.39,0,0,1,.56,0,1.55,1.55,0,0,1,.36.09.37.37,0,0,1,.2.13.33.33,0,0,1,.06.19Z"/><path class="cls-3" d="M289,191.29a3,3,0,0,1,0,.46,1.12,1.12,0,0,1-.09.32.66.66,0,0,1-.16.17.34.34,0,0,1-.2.06h-5.07v15.61a.33.33,0,0,1-.05.2.39.39,0,0,1-.2.13,2,2,0,0,1-.36.08,3.22,3.22,0,0,1-.58,0,3.18,3.18,0,0,1-.57,0,2,2,0,0,1-.38-.08.35.35,0,0,1-.19-.13.34.34,0,0,1-.06-.2V192.3H276a.36.36,0,0,1-.2-.06.39.39,0,0,1-.14-.17,1.52,1.52,0,0,1-.1-.32,3,3,0,0,1,0-.46,3.13,3.13,0,0,1,0-.46,1.45,1.45,0,0,1,.1-.33.37.37,0,0,1,.14-.18.36.36,0,0,1,.2-.06h12.53a.34.34,0,0,1,.2.06.57.57,0,0,1,.16.18,1.1,1.1,0,0,1,.09.33A3.13,3.13,0,0,1,289,191.29Z"/><path class="cls-3" d="M301.15,207.91a.34.34,0,0,1-.06.2.35.35,0,0,1-.19.13,2.1,2.1,0,0,1-.37.08,4.15,4.15,0,0,1-1.15,0,1.92,1.92,0,0,1-.37-.08.39.39,0,0,1-.2-.13.33.33,0,0,1-.05-.2V190.62a.33.33,0,0,1,.06-.19.36.36,0,0,1,.21-.13,2,2,0,0,1,.37-.09,4.44,4.44,0,0,1,.55,0,4.62,4.62,0,0,1,.58,0,2,2,0,0,1,.37.09.31.31,0,0,1,.19.13.33.33,0,0,1,.06.19Z"/><path class="cls-3" d="M328.16,199.06a14.08,14.08,0,0,1-.52,3.94,8.31,8.31,0,0,1-1.54,3,6.7,6.7,0,0,1-2.57,1.89,10.3,10.3,0,0,1-7.12.05,6.17,6.17,0,0,1-2.45-1.76,7.63,7.63,0,0,1-1.44-2.86,15.09,15.09,0,0,1-.47-3.94,13.73,13.73,0,0,1,.51-3.87,8.11,8.11,0,0,1,1.55-3,6.86,6.86,0,0,1,2.57-1.88,10.27,10.27,0,0,1,7.08-.06,6.3,6.3,0,0,1,2.45,1.74,7.43,7.43,0,0,1,1.46,2.84A14.23,14.23,0,0,1,328.16,199.06Zm-2.54.17a14.22,14.22,0,0,0-.27-2.85,6.48,6.48,0,0,0-.9-2.28,4.33,4.33,0,0,0-1.69-1.51,5.74,5.74,0,0,0-2.62-.55,5.33,5.33,0,0,0-2.61.59,5,5,0,0,0-1.72,1.56,6.52,6.52,0,0,0-.94,2.27,12.79,12.79,0,0,0-.29,2.74,14.72,14.72,0,0,0,.27,2.92,6.44,6.44,0,0,0,.89,2.31,4.25,4.25,0,0,0,1.67,1.5,5.74,5.74,0,0,0,2.64.54,5.48,5.48,0,0,0,2.64-.59,4.67,4.67,0,0,0,1.72-1.58,6.47,6.47,0,0,0,.93-2.3A13,13,0,0,0,325.62,199.23Z"/><path class="cls-3" d="M352.68,207.29a1.13,1.13,0,0,1-.09.47.8.8,0,0,1-.25.32,1.06,1.06,0,0,1-.33.18,1.26,1.26,0,0,1-.38.06h-.79a2.59,2.59,0,0,1-.66-.08,1.43,1.43,0,0,1-.53-.28,2.49,2.49,0,0,1-.5-.55,7.13,7.13,0,0,1-.54-.89l-5.49-10.24c-.29-.53-.58-1.09-.87-1.67s-.56-1.14-.81-1.69h0c0,.67,0,1.35,0,2.05s0,1.38,0,2.07v10.87a.33.33,0,0,1-.06.19.35.35,0,0,1-.19.14,2.33,2.33,0,0,1-.37.08,3.15,3.15,0,0,1-.58,0,3.09,3.09,0,0,1-.58,0,2,2,0,0,1-.36-.08.35.35,0,0,1-.19-.14.33.33,0,0,1-.06-.19V191.29a.92.92,0,0,1,.31-.79,1.16,1.16,0,0,1,.69-.24h1.18a3.36,3.36,0,0,1,.7.07,1.64,1.64,0,0,1,.5.23,2.07,2.07,0,0,1,.43.45,6,6,0,0,1,.44.71l4.22,7.91c.27.48.52,1,.76,1.41l.7,1.36q.33.67.66,1.32l.66,1.3h0c0-.73,0-1.5,0-2.29V190.67a.28.28,0,0,1,.06-.18.41.41,0,0,1,.2-.15,1.34,1.34,0,0,1,.36-.09,4.75,4.75,0,0,1,.6,0,4.61,4.61,0,0,1,.56,0,1.25,1.25,0,0,1,.36.09.38.38,0,0,1,.19.15.28.28,0,0,1,.06.18Z"/><path class="cls-3" d="M374.27,203.22a5.25,5.25,0,0,1-.46,2.26,4.75,4.75,0,0,1-1.3,1.67,5.53,5.53,0,0,1-1.95,1,8.11,8.11,0,0,1-2.41.35,8.82,8.82,0,0,1-1.68-.15,10.48,10.48,0,0,1-1.38-.38,6.49,6.49,0,0,1-1-.46,2.51,2.51,0,0,1-.57-.4,1,1,0,0,1-.24-.43,2.51,2.51,0,0,1-.08-.69,3.43,3.43,0,0,1,0-.5,1.59,1.59,0,0,1,.08-.33.41.41,0,0,1,.14-.17.33.33,0,0,1,.2-.05,1.2,1.2,0,0,1,.55.23,8.36,8.36,0,0,0,.91.52,9.41,9.41,0,0,0,1.34.52,6.27,6.27,0,0,0,1.82.24,4.62,4.62,0,0,0,1.43-.21,3.11,3.11,0,0,0,1.11-.59,2.57,2.57,0,0,0,.72-.94,3.15,3.15,0,0,0,.25-1.26,2.39,2.39,0,0,0-.35-1.31,3.63,3.63,0,0,0-.92-1,8.38,8.38,0,0,0-1.3-.75l-1.5-.69c-.51-.24-1-.5-1.49-.79a6.44,6.44,0,0,1-1.29-1,4.73,4.73,0,0,1-.93-1.37,4.64,4.64,0,0,1-.35-1.88,4.78,4.78,0,0,1,.41-2,4.1,4.1,0,0,1,1.14-1.49,5.15,5.15,0,0,1,1.74-.91,7.27,7.27,0,0,1,2.18-.31,6.94,6.94,0,0,1,1.2.1,7.63,7.63,0,0,1,2.1.67,2.27,2.27,0,0,1,.55.35,1.1,1.1,0,0,1,.17.21.69.69,0,0,1,.07.19,2,2,0,0,1,0,.29c0,.11,0,.25,0,.43s0,.32,0,.44a2.09,2.09,0,0,1-.07.33.35.35,0,0,1-.11.2.3.3,0,0,1-.18.06,1,1,0,0,1-.48-.2c-.22-.13-.48-.27-.8-.43a6.68,6.68,0,0,0-1.12-.45A5,5,0,0,0,369,192a3.92,3.92,0,0,0-1.31.2,2.67,2.67,0,0,0-.92.54,2.21,2.21,0,0,0-.55.79,2.65,2.65,0,0,0-.18,1,2.36,2.36,0,0,0,.35,1.3,3.52,3.52,0,0,0,.93,1,7.78,7.78,0,0,0,1.31.76l1.51.71c.51.24,1,.49,1.5.78a6.55,6.55,0,0,1,1.32,1,4.31,4.31,0,0,1,1.28,3.22Z"/></g></g></svg>