<?xml version="1.0" encoding="utf-8"?>
<!-- Generator: Adobe Illustrator 24.2.3, SVG Export Plug-In . SVG Version: 6.00 Build 0)  -->
<svg version="1.1" id="Calque_1" xmlns="http://www.w3.org/2000/svg" xmlns:xlink="http://www.w3.org/1999/xlink" x="0px" y="0px"
	 viewBox="0 0 408.2 361.6" style="enable-background:new 0 0 408.2 361.6;" xml:space="preserve">
<style type="text/css">
	.st0{fill:url(#SVGID_1_);}
	.st1{fill:url(#SVGID_2_);}
	.st2{fill:#FFFFFF;}
</style>
<g>
	<g>
		
			<linearGradient id="SVGID_1_" gradientUnits="userSpaceOnUse" x1="209.188" y1="543.1357" x2="276.3584" y2="475.952" gradientTransform="matrix(1 0 0 1 0 -293.2756)">
			<stop  offset="0" style="stop-color:#EA6216"/>
			<stop  offset="1" style="stop-color:#F7C100"/>
		</linearGradient>
		<path class="st0" d="M175,218.3L175,218.3c36.3,36.3,95,36.3,131.3,0l3.3-3.3L244,149.3L175,218.3z"/>
		
			<linearGradient id="SVGID_2_" gradientUnits="userSpaceOnUse" x1="130.3233" y1="469.3158" x2="277.1692" y2="322.4699" gradientTransform="matrix(1 0 0 1 0 -293.2756)">
			<stop  offset="0" style="stop-color:#EA6216"/>
			<stop  offset="0.83" style="stop-color:#F7C100"/>
		</linearGradient>
		<path class="st1" d="M240.7,0l-142,142l65.7,65.7l76.3-76.3C277,95,277,36.3,240.7,0z"/>
	</g>
	<path class="st2" d="M32.1,281.8H19.6V326h-7.1v-44.2H0v-7h32.1V281.8z"/>
	<path class="st2" d="M95.8,274.8V326h-6.9v-13.4H68.4V326h-7v-51.2h7v30.8h20.4v-30.8H95.8z"/>
	<path class="st2" d="M132.1,281.7v15.8h17.4v7h-17.4v14.4h22.6v7h-29.6v-51.1h29.6v7L132.1,281.7z"/>
	<path class="st2" d="M214,326h-29.7v-51.2h7V319H214V326z"/>
	<path class="st2" d="M250.4,326h-7v-51.2h7V326z"/>
	<path class="st2" d="M287.2,318.4c-10-10-9.9-26.2,0.1-36.1c10-10,26.2-9.9,36.1,0.1c10,10,9.9,26.2-0.1,36.1
		c-4.8,4.8-11.3,7.5-18,7.5C298.5,326.1,292,323.3,287.2,318.4z M292,287c-7.3,7.4-7.3,19.3,0,26.6s19.3,7.3,26.6,0
		c7.3-7.4,7.3-19.3,0-26.6c-3.5-3.5-8.3-5.5-13.3-5.5C300.3,281.4,295.5,283.4,292,287z"/>
	<path class="st2" d="M384.3,326l-17.2-26.6V326h-6.9v-51.2l24,36.8l24-36.8V326h-6.9v-26.6L384.3,326z"/>
	<path class="st2" d="M47.9,352c0,1.4-0.2,2.8-0.6,4.1c-0.4,1.1-1,2.1-1.8,2.9s-1.8,1.4-2.8,1.7c-1.3,0.4-2.6,0.6-4,0.6H35
		c-0.2,0-0.4-0.1-0.6-0.2c-0.2-0.2-0.3-0.5-0.3-0.8v-16.1c0-0.3,0.1-0.6,0.3-0.8c0.2-0.1,0.4-0.2,0.6-0.2h4.1c1.3,0,2.7,0.2,4,0.6
		c1,0.4,1.9,1,2.7,1.8c0.7,0.8,1.3,1.7,1.7,2.8C47.8,349.5,48,350.7,47.9,352z M45.4,352.1c0-0.9-0.1-1.8-0.4-2.7
		c-0.2-0.8-0.6-1.5-1.1-2.2c-0.5-0.6-1.2-1.1-2-1.4c-1-0.4-2-0.5-3-0.5h-2.4v14H39c1,0,2-0.1,2.9-0.4c0.8-0.3,1.5-0.7,2-1.3
		c0.5-0.7,0.9-1.4,1.1-2.2C45.3,354.2,45.4,353.1,45.4,352.1z"/>
	<path class="st2" d="M61.2,360.9c0,0.1,0,0.1-0.1,0.2c0,0.1-0.1,0.1-0.2,0.1c-0.1,0-0.2,0.1-0.4,0.1s-0.4,0-0.6,0
		c-0.2,0-0.4,0-0.6,0c-0.1,0-0.2,0-0.4-0.1c-0.1,0-0.1-0.1-0.2-0.1c0-0.1-0.1-0.1,0-0.2v-17.3c0-0.1,0-0.1,0.1-0.2s0.1-0.1,0.2-0.1
		c0.1,0,0.2-0.1,0.4-0.1s0.4,0,0.5,0c0.2,0,0.4,0,0.6,0c0.1,0,0.2,0,0.4,0.1c0.1,0,0.1,0.1,0.2,0.1c0,0.1,0.1,0.1,0.1,0.2V360.9z"/>
	<path class="st2" d="M86.6,345.7c0,0.2,0,0.3,0,0.5c0,0.1,0,0.2-0.1,0.3c0,0.1-0.1,0.1-0.1,0.2c-0.1,0-0.1,0.1-0.2,0.1
		c-0.2,0-0.4-0.1-0.6-0.3c-0.8-0.5-1.7-0.9-2.6-1.2c-0.7-0.2-1.4-0.3-2.2-0.3c-0.9,0-1.8,0.2-2.7,0.5c-0.8,0.3-1.5,0.9-2,1.5
		c-0.6,0.7-1,1.5-1.3,2.3c-0.3,0.9-0.5,1.9-0.4,2.9c0,1,0.1,2.1,0.5,3.1c0.3,0.8,0.7,1.6,1.3,2.3c0.6,0.6,1.2,1.1,2,1.4
		s1.7,0.5,2.6,0.5c0.6,0,1.1-0.1,1.7-0.2s1.1-0.3,1.6-0.6v-5.3H80c-0.2,0-0.3-0.1-0.3-0.2c-0.1-0.2-0.1-0.5-0.1-0.7
		c0-0.1,0-0.3,0-0.5c0-0.1,0-0.2,0.1-0.3c0-0.1,0.1-0.1,0.2-0.2c0.1,0,0.1-0.1,0.2-0.1h5.7c0.1,0,0.2,0,0.3,0.1
		c0.1,0,0.2,0.1,0.3,0.2c0.1,0.1,0.2,0.2,0.2,0.3c0,0.1,0.1,0.3,0.1,0.4v6.9c0,0.2,0,0.4-0.1,0.6s-0.3,0.4-0.5,0.5
		c-0.3,0.1-0.6,0.3-1,0.4c-0.4,0.2-0.9,0.3-1.3,0.4c-0.5,0.1-0.9,0.2-1.4,0.3c-0.5,0.1-0.9,0.1-1.4,0.1c-1.3,0-2.5-0.2-3.7-0.6
		c-1.1-0.4-2-1-2.8-1.9c-0.8-0.8-1.4-1.8-1.7-2.9c-0.8-2.5-0.8-5.1,0-7.6c0.4-1.1,1-2.1,1.8-3c0.8-0.8,1.8-1.5,2.8-1.9
		c1.2-0.5,2.4-0.7,3.7-0.7c0.6,0,1.3,0.1,1.9,0.2c0.5,0.1,1.1,0.3,1.6,0.4c0.4,0.1,0.8,0.3,1.2,0.5c0.2,0.1,0.5,0.3,0.7,0.5
		c0.1,0.1,0.2,0.3,0.3,0.4C86.6,345.2,86.6,345.4,86.6,345.7z"/>
	<path class="st2" d="M100.6,360.9c0,0.1,0,0.1,0,0.2c-0.1,0.1-0.1,0.1-0.2,0.1s-0.2,0.1-0.4,0.1c-0.2,0-0.4,0-0.6,0s-0.4,0-0.6,0
		c-0.1,0-0.2,0-0.4-0.1c-0.1,0-0.1-0.1-0.2-0.1c0-0.1,0-0.1,0-0.2v-17.3c0-0.1,0-0.1,0.1-0.2s0.1-0.1,0.2-0.1s0.3-0.1,0.4-0.1
		c0.2,0,0.4,0,0.6,0s0.4,0,0.6,0c0.1,0,0.3,0,0.4,0.1c0.1,0,0.1,0.1,0.2,0.1c0,0.1,0,0.1,0,0.2L100.6,360.9z"/>
	<path class="st2" d="M123.8,344.3c0,0.2,0,0.3,0,0.5c0,0.1,0,0.2-0.1,0.3c0,0.1-0.1,0.1-0.2,0.2c-0.1,0-0.1,0.1-0.2,0.1h-5.1V361
		c0,0.1,0,0.1-0.1,0.2c0,0.1-0.1,0.1-0.2,0.1s-0.2,0.1-0.4,0.1c-0.4,0.1-0.8,0.1-1.2,0c-0.1,0-0.3,0-0.4-0.1c-0.1,0-0.1-0.1-0.2-0.1
		c0-0.1-0.1-0.1-0.1-0.2v-15.6h-5.1c-0.1,0-0.1,0-0.2-0.1c-0.1,0-0.1-0.1-0.1-0.2s-0.1-0.2-0.1-0.3c0-0.2,0-0.3,0-0.5s0-0.3,0-0.5
		c0-0.1,0-0.2,0.1-0.3c0-0.1,0.1-0.1,0.1-0.2c0.1,0,0.1-0.1,0.2-0.1H123c0.1,0,0.1,0,0.2,0.1c0.1,0,0.1,0.1,0.2,0.2
		c0,0.1,0.1,0.2,0.1,0.3C123.8,344,123.8,344.1,123.8,344.3z"/>
	<path class="st2" d="M144.8,360.4c0.1,0.2,0.1,0.3,0.1,0.5c0,0.1,0,0.2-0.1,0.3c-0.1,0.1-0.2,0.1-0.4,0.1s-0.5,0-0.7,0H143
		c-0.1,0-0.3,0-0.4-0.1c-0.1,0-0.1-0.1-0.2-0.1l-0.1-0.2l-1.5-4.4h-7.5l-1.5,4.3c0,0.1-0.1,0.2-0.1,0.2c-0.1,0.1-0.1,0.1-0.2,0.1
		c-0.1,0-0.2,0.1-0.4,0.1s-0.4,0-0.6,0c-0.2,0-0.4,0-0.7,0c-0.1,0-0.3,0-0.4-0.1c-0.1-0.1-0.1-0.2-0.1-0.3c0-0.2,0.1-0.3,0.1-0.5
		l6-16.7c0-0.1,0.1-0.2,0.1-0.3c0.1-0.1,0.2-0.1,0.3-0.1s0.3-0.1,0.4-0.1h0.7h0.7c0.2,0,0.3,0,0.5,0.1c0.1,0,0.2,0.1,0.3,0.2
		s0.1,0.2,0.2,0.3L144.8,360.4z M137,345.6L137,345.6l-3.1,9h6.3L137,345.6z"/>
	<path class="st2" d="M164.2,360.2c0,0.2,0,0.3,0,0.5c0,0.1,0,0.2-0.1,0.3c0,0.1-0.1,0.1-0.2,0.2c-0.1,0-0.1,0.1-0.2,0.1h-8
		c-0.2,0-0.4-0.1-0.6-0.2c-0.2-0.2-0.3-0.5-0.3-0.8v-16.7c0-0.1,0-0.1,0.1-0.2c0-0.1,0.1-0.1,0.2-0.1c0.1,0,0.3-0.1,0.4-0.1
		c0.2,0,0.4,0,0.6,0c0.2,0,0.4,0,0.6,0c0.1,0,0.2,0,0.4,0.1c0.1,0,0.1,0.1,0.2,0.1c0,0.1,0.1,0.1,0.1,0.2v15.6h6.5
		c0.1,0,0.1,0,0.2,0.1c0.1,0.1,0.1,0.1,0.2,0.2c0,0.1,0.1,0.2,0.1,0.3C164.2,359.9,164.2,360,164.2,360.2z"/>
	<path class="st2" d="M197.3,356.2c0,0.8-0.1,1.6-0.5,2.3c-0.3,0.6-0.7,1.2-1.3,1.7s-1.2,0.8-1.9,1c-0.8,0.2-1.6,0.4-2.4,0.4
		c-0.6,0-1.1,0-1.7-0.1c-0.5-0.1-0.9-0.2-1.4-0.4c-0.3-0.1-0.7-0.3-1-0.5c-0.2-0.1-0.4-0.2-0.6-0.4c-0.1-0.1-0.2-0.3-0.2-0.4
		c-0.1-0.2-0.1-0.5-0.1-0.7s0-0.3,0-0.5c0-0.1,0-0.2,0.1-0.3c0-0.1,0.1-0.1,0.1-0.2c0.1,0,0.1,0,0.2,0c0.2,0,0.4,0.1,0.6,0.2
		c0.3,0.2,0.6,0.4,0.9,0.5c0.4,0.2,0.9,0.4,1.3,0.5c0.6,0.2,1.2,0.2,1.8,0.2c0.5,0,1-0.1,1.4-0.2s0.8-0.3,1.1-0.6
		c0.3-0.3,0.6-0.6,0.7-0.9c0.2-0.4,0.3-0.8,0.3-1.3s-0.1-0.9-0.4-1.3c-0.2-0.4-0.6-0.7-0.9-1c-0.4-0.3-0.8-0.5-1.3-0.8l-1.5-0.7
		c-0.5-0.2-1-0.5-1.5-0.8s-0.9-0.6-1.3-1c-0.4-0.4-0.7-0.8-0.9-1.3c-0.5-1.3-0.5-2.7,0.1-3.9c0.3-0.6,0.6-1.1,1.1-1.5
		s1.1-0.7,1.7-0.9c0.7-0.2,1.4-0.3,2.2-0.3c0.4,0,0.8,0,1.2,0.1c0.7,0.1,1.4,0.3,2.1,0.7c0.2,0.1,0.4,0.2,0.6,0.4
		c0.1,0.1,0.1,0.1,0.2,0.2c0,0.1,0.1,0.1,0.1,0.2s0,0.2,0,0.3c0,0.1,0,0.3,0,0.4s0,0.3,0,0.4s0,0.2-0.1,0.3c0,0.1-0.1,0.2-0.1,0.2
		s-0.1,0.1-0.2,0.1c-0.2,0-0.3-0.1-0.5-0.2s-0.5-0.3-0.8-0.4c-0.4-0.2-0.7-0.3-1.1-0.5c-0.5-0.1-1-0.2-1.5-0.2
		c-0.4,0-0.9,0.1-1.3,0.2c-0.3,0.1-0.7,0.3-0.9,0.5s-0.4,0.5-0.6,0.8c-0.1,0.3-0.2,0.7-0.2,1c0,0.5,0.1,0.9,0.4,1.3
		c0.2,0.4,0.6,0.7,0.9,1c0.4,0.3,0.8,0.5,1.3,0.8l1.5,0.7c0.5,0.2,1,0.5,1.5,0.8s0.9,0.6,1.3,1c0.9,0.8,1.3,2,1.3,3.2L197.3,356.2z"
		/>
	<path class="st2" d="M222.9,352c0,1.3-0.2,2.7-0.5,3.9c-0.3,1.1-0.8,2.1-1.5,3c-0.7,0.8-1.6,1.5-2.6,1.9c-2.3,0.9-4.8,0.9-7.1,0
		c-0.9-0.4-1.8-1-2.4-1.8c-0.7-0.8-1.2-1.8-1.4-2.9c-0.3-1.3-0.5-2.6-0.5-3.9s0.2-2.6,0.5-3.9c0.3-1.1,0.8-2.1,1.6-3
		c0.7-0.8,1.6-1.5,2.6-1.9c2.3-0.9,4.8-0.9,7.1-0.1c0.9,0.4,1.8,1,2.4,1.7c0.7,0.8,1.2,1.8,1.5,2.8
		C222.8,349.4,222.9,350.7,222.9,352z M220.4,352.2c0-1-0.1-1.9-0.3-2.9c-0.2-0.8-0.5-1.6-0.9-2.3c-0.4-0.6-1-1.2-1.7-1.5
		c-0.8-0.4-1.7-0.6-2.6-0.5c-0.9,0-1.8,0.2-2.6,0.6c-0.7,0.4-1.3,0.9-1.7,1.6c-0.5,0.7-0.8,1.5-0.9,2.3c-0.2,0.9-0.3,1.8-0.3,2.7
		c0,1,0.1,2,0.3,2.9c0.1,0.8,0.4,1.6,0.9,2.3c0.4,0.6,1,1.2,1.7,1.5c0.8,0.4,1.7,0.6,2.6,0.5c0.9,0,1.8-0.2,2.6-0.6
		c0.7-0.4,1.3-0.9,1.7-1.6c0.5-0.7,0.8-1.5,0.9-2.3C220.3,354.1,220.4,353.1,220.4,352.2z"/>
	<path class="st2" d="M243.2,360.2c0,0.2,0,0.3,0,0.5c0,0.1,0,0.2-0.1,0.3c0,0.1-0.1,0.1-0.1,0.2c-0.1,0-0.1,0.1-0.2,0.1h-8
		c-0.2,0-0.4-0.1-0.6-0.2c-0.2-0.2-0.3-0.5-0.3-0.8v-16.7c0-0.1,0-0.1,0.1-0.2c0-0.1,0.1-0.1,0.2-0.1c0.1,0,0.2-0.1,0.4-0.1
		s0.4,0,0.6,0c0.2,0,0.4,0,0.6,0c0.1,0,0.3,0,0.4,0.1c0.1,0,0.1,0.1,0.2,0.1c0,0.1,0,0.1,0.1,0.2v15.6h6.5c0.1,0,0.2,0,0.2,0.1
		c0.1,0.1,0.1,0.1,0.1,0.2s0.1,0.2,0.1,0.3C243.1,359.9,243.2,360,243.2,360.2z"/>
	<path class="st2" d="M265.9,354.6c0,1-0.1,2-0.5,2.9c-0.3,0.8-0.8,1.6-1.4,2.2s-1.4,1.1-2.2,1.4c-0.9,0.3-1.9,0.5-2.9,0.5
		c-0.9,0-1.8-0.1-2.7-0.4c-0.8-0.3-1.5-0.7-2.1-1.3c-0.6-0.6-1.1-1.3-1.4-2.1c-0.3-0.9-0.5-1.9-0.5-2.9v-11.3c0-0.1,0-0.1,0.1-0.2
		c0-0.1,0.1-0.1,0.2-0.1c0.1,0,0.2-0.1,0.4-0.1c0.4,0,0.8,0,1.2,0c0.1,0,0.3,0,0.4,0.1c0.1,0,0.1,0.1,0.2,0.1c0,0.1,0.1,0.1,0.1,0.2
		v10.9c0,0.7,0.1,1.5,0.3,2.2c0.2,0.6,0.5,1.1,0.9,1.5s0.9,0.7,1.4,0.9c0.6,0.2,1.2,0.3,1.8,0.3c0.6,0,1.3-0.1,1.9-0.3
		c0.5-0.2,1-0.5,1.4-0.9s0.7-1,0.9-1.5c0.2-0.7,0.3-1.4,0.3-2.1v-11c0-0.1,0-0.1,0.1-0.2c0-0.1,0.1-0.1,0.2-0.1s0.2-0.1,0.4-0.1
		c0.2,0,0.4,0,0.6,0s0.4,0,0.6,0c0.1,0,0.2,0,0.4,0.1c0.1,0,0.1,0.1,0.2,0.1c0,0.1,0.1,0.1,0.1,0.2L265.9,354.6z"/>
	<path class="st2" d="M289,344.3c0,0.2,0,0.3,0,0.5c0,0.1,0,0.2-0.1,0.3c0,0.1-0.1,0.1-0.2,0.2c-0.1,0-0.1,0.1-0.2,0.1h-5.1V361
		c0,0.1,0,0.1,0,0.2c-0.1,0.1-0.1,0.1-0.2,0.1s-0.2,0.1-0.4,0.1c-0.2,0-0.4,0-0.6,0s-0.4,0-0.6,0c-0.1,0-0.3,0-0.4-0.1
		c-0.1,0-0.1-0.1-0.2-0.1c0-0.1-0.1-0.1-0.1-0.2v-15.6H276c-0.1,0-0.1,0-0.2-0.1c-0.1,0-0.1-0.1-0.1-0.2s-0.1-0.2-0.1-0.3
		c0-0.2,0-0.3,0-0.5s0-0.3,0-0.5c0-0.1,0.1-0.2,0.1-0.3c0-0.1,0.1-0.1,0.1-0.2c0.1,0,0.1-0.1,0.2-0.1h12.5c0.1,0,0.1,0,0.2,0.1
		c0.1,0,0.1,0.1,0.2,0.2c0,0.1,0.1,0.2,0.1,0.3C289,344,289,344.1,289,344.3z"/>
	<path class="st2" d="M301.1,360.9c0,0.1,0,0.1-0.1,0.2c0,0.1-0.1,0.1-0.2,0.1s-0.2,0.1-0.4,0.1c-0.4,0.1-0.8,0.1-1.1,0
		c-0.1,0-0.2,0-0.4-0.1c-0.1,0-0.1-0.1-0.2-0.1c0-0.1-0.1-0.1,0-0.2v-17.3c0-0.1,0-0.1,0.1-0.2s0.1-0.1,0.2-0.1s0.2-0.1,0.4-0.1
		c0.2,0,0.4,0,0.5,0c0.2,0,0.4,0,0.6,0c0.1,0,0.2,0,0.4,0.1c0.1,0,0.1,0.1,0.2,0.1c0,0.1,0.1,0.1,0.1,0.2L301.1,360.9z"/>
	<path class="st2" d="M328.2,352c0,1.3-0.2,2.7-0.5,3.9c-0.3,1.1-0.8,2.1-1.5,3c-0.7,0.8-1.6,1.5-2.6,1.9c-2.3,0.9-4.8,0.9-7.1,0
		c-0.9-0.4-1.8-1-2.5-1.8s-1.2-1.8-1.4-2.9c-0.3-1.3-0.5-2.6-0.5-3.9s0.2-2.6,0.5-3.9c0.3-1.1,0.8-2.1,1.5-3
		c0.7-0.8,1.6-1.5,2.6-1.9c2.3-0.9,4.8-0.9,7.1-0.1c0.9,0.4,1.8,1,2.5,1.7c0.7,0.8,1.2,1.8,1.5,2.8C328,349.4,328.2,350.7,328.2,352
		z M325.6,352.2c0-1-0.1-1.9-0.3-2.9c-0.2-0.8-0.5-1.6-0.9-2.3c-0.4-0.6-1-1.2-1.7-1.5c-0.8-0.4-1.7-0.6-2.6-0.5
		c-0.9,0-1.8,0.2-2.6,0.6c-0.7,0.4-1.3,0.9-1.7,1.6c-0.5,0.7-0.8,1.5-0.9,2.3c-0.2,0.9-0.3,1.8-0.3,2.7c0,1,0.1,2,0.3,2.9
		c0.1,0.8,0.4,1.6,0.9,2.3c0.4,0.6,1,1.2,1.7,1.5c0.8,0.4,1.7,0.6,2.6,0.5c0.9,0,1.8-0.2,2.6-0.6c0.7-0.4,1.3-0.9,1.7-1.6
		c0.5-0.7,0.8-1.5,0.9-2.3C325.5,354.1,325.6,353.1,325.6,352.2z"/>
	<path class="st2" d="M352.7,360.3c0,0.2,0,0.3-0.1,0.5c-0.1,0.1-0.1,0.2-0.3,0.3c-0.1,0.1-0.2,0.1-0.3,0.2c-0.1,0-0.3,0.1-0.4,0.1
		h-0.8c-0.2,0-0.4,0-0.7-0.1c-0.2-0.1-0.4-0.2-0.5-0.3c-0.2-0.2-0.4-0.3-0.5-0.5c-0.2-0.3-0.4-0.6-0.5-0.9l-5.5-10.2
		c-0.3-0.5-0.6-1.1-0.9-1.7s-0.6-1.1-0.8-1.7l0,0c0,0.7,0,1.4,0,2s0,1.4,0,2.1V361c0,0.1,0,0.1-0.1,0.2c0,0.1-0.1,0.1-0.2,0.1
		s-0.2,0.1-0.4,0.1c-0.2,0-0.4,0-0.6,0s-0.4,0-0.6,0c-0.1,0-0.2,0-0.4-0.1c-0.1,0-0.1-0.1-0.2-0.1c0-0.1-0.1-0.1-0.1-0.2v-16.6
		c0-0.3,0.1-0.6,0.3-0.8c0.2-0.2,0.4-0.2,0.7-0.2h1.2c0.2,0,0.5,0,0.7,0.1c0.2,0,0.3,0.1,0.5,0.2s0.3,0.3,0.4,0.5
		c0.2,0.2,0.3,0.5,0.4,0.7l4.2,7.9c0.3,0.5,0.5,1,0.8,1.4l0.7,1.4c0.2,0.5,0.4,0.9,0.7,1.3l0.7,1.3l0,0c0-0.7,0-1.5,0-2.3v-12.3
		c0-0.1,0-0.1,0.1-0.2c0-0.1,0.1-0.1,0.2-0.1s0.2-0.1,0.4-0.1c0.2,0,0.4,0,0.6,0s0.4,0,0.6,0c0.1,0,0.2,0,0.4,0.1
		c0.1,0,0.1,0.1,0.2,0.1c0,0.1,0.1,0.1,0.1,0.2L352.7,360.3z"/>
	<path class="st2" d="M374.3,356.2c0,0.8-0.1,1.6-0.5,2.3c-0.3,0.6-0.7,1.2-1.3,1.7c-0.6,0.5-1.2,0.8-2,1s-1.6,0.4-2.4,0.4
		c-0.6,0-1.1,0-1.7-0.1c-0.5-0.1-0.9-0.2-1.4-0.4c-0.3-0.1-0.7-0.3-1-0.5c-0.2-0.1-0.4-0.2-0.6-0.4c-0.1-0.1-0.2-0.3-0.2-0.4
		c-0.1-0.2-0.1-0.5-0.1-0.7s0-0.3,0-0.5c0-0.1,0-0.2,0.1-0.3c0-0.1,0.1-0.1,0.1-0.2c0.1,0,0.1,0,0.2,0c0.2,0,0.4,0.1,0.5,0.2
		c0.3,0.2,0.6,0.4,0.9,0.5c0.4,0.2,0.9,0.4,1.3,0.5c0.6,0.2,1.2,0.2,1.8,0.2c0.5,0,1-0.1,1.4-0.2s0.8-0.3,1.1-0.6
		c0.3-0.3,0.6-0.6,0.7-0.9c0.2-0.4,0.3-0.8,0.3-1.3s-0.1-0.9-0.4-1.3c-0.2-0.4-0.6-0.7-0.9-1c-0.4-0.3-0.8-0.5-1.3-0.8l-1.5-0.7
		c-0.5-0.2-1-0.5-1.5-0.8s-0.9-0.6-1.3-1s-0.7-0.8-0.9-1.3c-0.2-0.6-0.4-1.2-0.4-1.9c0-0.7,0.1-1.4,0.4-2s0.6-1.1,1.1-1.5
		s1.1-0.7,1.7-0.9c0.7-0.2,1.4-0.3,2.2-0.3c0.4,0,0.8,0,1.2,0.1c0.7,0.1,1.4,0.3,2.1,0.7c0.2,0.1,0.4,0.2,0.5,0.4
		c0.1,0.1,0.1,0.1,0.2,0.2c0,0.1,0.1,0.1,0.1,0.2s0,0.2,0,0.3c0,0.1,0,0.3,0,0.4s0,0.3,0,0.4s0,0.2-0.1,0.3c0,0.1-0.1,0.1-0.1,0.2
		c-0.1,0-0.1,0.1-0.2,0.1c-0.2,0-0.3-0.1-0.5-0.2s-0.5-0.3-0.8-0.4c-0.4-0.2-0.7-0.3-1.1-0.5c-0.5-0.1-1-0.2-1.5-0.2
		c-0.4,0-0.9,0.1-1.3,0.2c-0.3,0.1-0.7,0.3-0.9,0.5c-0.2,0.2-0.4,0.5-0.5,0.8s-0.2,0.7-0.2,1c0,0.5,0.1,0.9,0.4,1.3
		c0.2,0.4,0.6,0.7,0.9,1c0.4,0.3,0.8,0.5,1.3,0.8l1.5,0.7c0.5,0.2,1,0.5,1.5,0.8s0.9,0.6,1.3,1c0.9,0.8,1.3,2,1.3,3.2L374.3,356.2z"
		/>
</g>
</svg>
